<svg width="276" height="299" viewBox="0 0 276 299" fill="none" xmlns="http://www.w3.org/2000/svg">
<path d="M108.535 202.162C110.937 167.812 112.138 150.638 123.051 136.704C133.964 122.77 150.328 117.519 183.054 107.017L206.549 99.4768C239.276 88.9742 255.639 83.7228 265.059 91.1317C274.48 98.5398 273.279 115.715 270.877 150.065L269.153 174.726C266.751 209.075 265.55 226.25 254.637 240.184C243.724 254.117 227.361 259.368 194.634 269.871L171.138 277.41C138.413 287.913 122.049 293.164 112.629 285.756C103.208 278.348 104.409 261.172 106.811 226.823L108.535 202.162Z" fill="url(#paint0_linear_5276_87016)"/>
<path fill-rule="evenodd" clip-rule="evenodd" d="M85.934 113.601C75.5139 127.907 74.913 145.113 73.7113 179.526L72.8485 204.232C71.6468 238.644 71.046 255.851 80.7194 262.926C82.5414 264.259 84.5947 265.134 86.9431 265.599C90.1321 266.231 91.727 266.546 93.0809 265.339C94.4342 264.132 94.2664 262.001 93.9307 257.741C93.1945 248.402 93.6297 235.941 94.2003 219.601L95.063 194.895C96.2647 160.482 96.8656 143.276 107.286 128.97C117.706 114.664 133.876 108.845 166.215 97.2064L189.434 88.8513C204.626 83.384 216.251 79.2011 225.309 77.0359C229.455 76.0444 231.527 75.5494 232.251 73.8689C232.976 72.1883 232.17 70.7805 230.556 67.9639C229.423 65.9846 228.012 64.3779 226.265 63.1002C216.592 56.0254 200.422 61.8446 168.082 73.4823L144.864 81.8374C112.524 93.4758 96.3541 99.295 85.934 113.601Z" fill="url(#paint1_linear_5276_87016)"/>
<path fill-rule="evenodd" clip-rule="evenodd" d="M48.4806 92.3968C39.0838 107.395 39.6846 124.601 40.8864 159.014L41.7491 183.72C42.9508 218.133 43.5517 235.339 53.6952 241.722C55.6057 242.925 57.715 243.655 60.0901 243.954C63.3154 244.362 64.9284 244.566 66.1949 243.267C67.4606 241.968 67.1446 239.855 66.5125 235.628C65.1267 226.363 64.6915 213.903 64.1209 197.563L63.2582 172.856C62.0565 138.443 61.4556 121.237 70.8524 106.239C80.2492 91.2414 95.974 84.3084 127.423 70.4425L150.002 60.4881C164.776 53.9743 176.08 48.9908 184.966 46.1989C189.032 44.9206 191.065 44.2823 191.67 42.5553C192.276 40.8283 191.373 39.4801 189.567 36.783C188.298 34.8875 186.779 33.3832 184.947 32.2305C174.804 25.8477 159.08 32.7807 127.63 46.6459L105.051 56.6003C73.6022 70.4662 57.8774 77.3992 48.4806 92.3968Z" fill="url(#paint2_linear_5276_87016)"/>
<path fill-rule="evenodd" clip-rule="evenodd" d="M14.7939 68.9178C5.92621 84.235 7.12718 101.41 9.52918 135.76L11.2536 160.421C13.6556 194.77 14.8566 211.945 25.2166 217.97C27.168 219.106 29.3014 219.761 31.6856 219.978C34.9231 220.273 36.5422 220.42 37.7627 219.078C38.9823 217.736 38.5927 215.634 37.8135 211.432C36.1052 202.222 35.2354 189.784 34.0949 173.474L32.3704 148.813C29.9685 114.463 28.7675 97.2879 37.6351 81.9708C46.5028 66.6543 61.9761 59.1768 92.9218 44.2218L115.14 33.4854C129.678 26.46 140.801 21.085 149.584 17.9847C153.603 16.5654 155.612 15.8564 156.157 14.1094C156.702 12.3623 155.752 11.0465 153.853 8.41403C152.519 6.56396 150.948 5.11359 149.078 4.0255C138.718 -1.9994 123.245 5.47808 92.2985 20.4324L70.0806 31.1688C39.1348 46.1238 23.6616 53.6014 14.7939 68.9178Z" fill="url(#paint3_linear_5276_87016)"/>
<g filter="url(#filter0_i_5276_87016)">
<path fill-rule="evenodd" clip-rule="evenodd" d="M161.606 226.375L155.455 228.349C146.72 231.152 140.158 225.992 140.799 216.823C141.44 207.654 149.042 197.948 157.777 195.145C159.994 194.434 162.072 194.235 163.926 194.485C166.155 178.976 179.059 163.204 193.778 158.481C206.895 154.272 217.248 160.186 219.427 171.967C221.284 170.74 223.25 169.767 225.27 169.118C235.181 165.938 242.626 171.793 241.899 182.195C241.171 192.597 232.547 203.609 222.636 206.789L217.714 208.369L217.714 208.37L161.606 226.375Z" fill="url(#paint4_linear_5276_87016)"/>
</g>
<g filter="url(#filter1_i_5276_87016)">
<path fill-rule="evenodd" clip-rule="evenodd" d="M163.096 224.468L216.427 207.354L222.738 205.328C231.882 202.393 239.838 192.235 240.509 182.637C241.18 173.039 234.312 167.638 225.168 170.572C223.302 171.171 221.489 172.069 219.776 173.201L218.316 174.166L218.055 172.752C215.985 161.554 206.142 155.934 193.676 159.935C179.686 164.425 167.42 179.415 165.303 194.155L165.004 196.228L163.284 195.997C161.594 195.769 159.7 195.949 157.675 196.599C149.707 199.157 142.773 208.01 142.188 216.373C141.603 224.737 147.589 229.444 155.557 226.887L163.096 224.468ZM162.614 194.381C161.109 194.35 159.485 194.593 157.777 195.141C149.042 197.945 141.44 207.65 140.799 216.819C140.158 225.988 146.72 231.148 155.455 228.345L161.606 226.372L217.714 208.366L222.636 206.786C232.547 203.605 241.171 192.594 241.899 182.191C242.626 171.789 235.181 165.934 225.27 169.115C223.737 169.607 222.235 170.285 220.788 171.121C220.329 171.386 219.874 171.667 219.427 171.963C219.346 171.527 219.254 171.098 219.151 170.678C216.477 159.757 206.408 154.424 193.778 158.478C179.552 163.043 167.022 177.927 164.187 192.92C164.088 193.441 164.001 193.961 163.926 194.481C163.5 194.424 163.063 194.39 162.614 194.381Z" fill="white"/>
</g>
<defs>
<filter id="filter0_i_5276_87016" x="140.756" y="157.129" width="121.191" height="85.9844" filterUnits="userSpaceOnUse" color-interpolation-filters="sRGB">
<feFlood flood-opacity="0" result="BackgroundImageFix"/>
<feBlend mode="normal" in="SourceGraphic" in2="BackgroundImageFix" result="shape"/>
<feColorMatrix in="SourceAlpha" type="matrix" values="0 0 0 0 0 0 0 0 0 0 0 0 0 0 0 0 0 0 127 0" result="hardAlpha"/>
<feOffset dx="20" dy="14"/>
<feGaussianBlur stdDeviation="12"/>
<feComposite in2="hardAlpha" operator="arithmetic" k2="-1" k3="1"/>
<feColorMatrix type="matrix" values="0 0 0 0 0 0 0 0 0 0 0 0 0 0 0 0 0 0 0.07 0"/>
<feBlend mode="normal" in2="shape" result="effect1_innerShadow_5276_87016"/>
</filter>
<filter id="filter1_i_5276_87016" x="140.756" y="157.125" width="121.191" height="85.9844" filterUnits="userSpaceOnUse" color-interpolation-filters="sRGB">
<feFlood flood-opacity="0" result="BackgroundImageFix"/>
<feBlend mode="normal" in="SourceGraphic" in2="BackgroundImageFix" result="shape"/>
<feColorMatrix in="SourceAlpha" type="matrix" values="0 0 0 0 0 0 0 0 0 0 0 0 0 0 0 0 0 0 127 0" result="hardAlpha"/>
<feOffset dx="20" dy="14"/>
<feGaussianBlur stdDeviation="12"/>
<feComposite in2="hardAlpha" operator="arithmetic" k2="-1" k3="1"/>
<feColorMatrix type="matrix" values="0 0 0 0 0 0 0 0 0 0 0 0 0 0 0 0 0 0 0.07 0"/>
<feBlend mode="normal" in2="shape" result="effect1_innerShadow_5276_87016"/>
</filter>
<linearGradient id="paint0_linear_5276_87016" x1="237.444" y1="297.21" x2="45.8865" y2="131.467" gradientUnits="userSpaceOnUse">
<stop stop-color="#FF2255"/>
<stop offset="1" stop-color="#80112B" stop-opacity="0"/>
</linearGradient>
<linearGradient id="paint1_linear_5276_87016" x1="203.01" y1="270.083" x2="6.77406" y2="115.308" gradientUnits="userSpaceOnUse">
<stop stop-color="#00CD67"/>
<stop offset="1" stop-color="#80112B" stop-opacity="0"/>
</linearGradient>
<linearGradient id="paint2_linear_5276_87016" x1="176.187" y1="240.331" x2="-30.3674" y2="99.6217" gradientUnits="userSpaceOnUse">
<stop stop-color="#507373"/>
<stop offset="1" stop-color="#3DCCC3" stop-opacity="0.66"/>
</linearGradient>
<linearGradient id="paint3_linear_5276_87016" x1="147.586" y1="212.305" x2="-63.754" y2="78.89" gradientUnits="userSpaceOnUse">
<stop stop-color="#FF2255"/>
<stop offset="1" stop-color="#80112B" stop-opacity="0"/>
</linearGradient>
<linearGradient id="paint4_linear_5276_87016" x1="199.93" y1="170.873" x2="221.773" y2="220.336" gradientUnits="userSpaceOnUse">
<stop stop-color="white"/>
<stop offset="1" stop-color="white" stop-opacity="0.78"/>
</linearGradient>
</defs>
</svg>
