<svg width="228" height="209" viewBox="0 0 228 209" fill="none" xmlns="http://www.w3.org/2000/svg">
<path d="M53.0391 110.643C53.0391 75.4916 81.5345 46.9961 116.685 46.9961C151.836 46.9961 180.332 75.4915 180.332 110.642V174.289H53.0391V110.643Z" fill="url(#paint0_linear_1848_25398)"/>
<path d="M53.0391 64.6425C53.0391 29.4916 81.5345 0.996094 116.685 0.996094C151.836 0.996094 180.332 29.4915 180.332 64.6425V128.289H53.0391V64.6425Z" fill="url(#paint1_linear_1848_25398)"/>
<path d="M193 74.4961C193 66.488 199.492 59.9961 207.5 59.9961C215.508 59.9961 222 66.488 222 74.4961V88.9961H193V74.4961Z" fill="url(#paint2_linear_1848_25398)"/>
<path d="M0 129.079C0 104.18 20.1843 83.9961 45.0829 83.9961C69.9815 83.9961 90.1657 104.18 90.1657 129.079V174.162H45.0829C20.1843 174.162 0 153.978 0 129.079Z" fill="url(#paint3_linear_1848_25398)"/>
<path d="M0 84.079C0 59.1804 20.1843 38.9961 45.0829 38.9961C69.9815 38.9961 90.1657 59.1804 90.1657 84.079V129.162H45.0829C20.1843 129.162 0 108.978 0 84.079Z" fill="url(#paint4_linear_1848_25398)"/>
<path d="M27 18.4961C27 12.1448 32.1487 6.99609 38.5 6.99609C44.8513 6.99609 50 12.1448 50 18.4961V29.9961H38.5C32.1487 29.9961 27 24.8474 27 18.4961Z" fill="url(#paint5_linear_1848_25398)"/>
<path d="M6 168.996C6 160.16 13.1634 152.996 22 152.996C30.8366 152.996 38 160.16 38 168.996V184.996H22C13.1634 184.996 6 177.833 6 168.996Z" fill="url(#paint6_linear_1848_25398)"/>
<path d="M126 191.996C126 197.519 130.477 201.996 136 201.996C141.523 201.996 146 197.519 146 191.996V181.996H136C130.477 181.996 126 186.473 126 191.996Z" fill="url(#paint7_linear_1848_25398)"/>
<path d="M153.812 137.593C153.812 117.381 170.197 100.996 190.409 100.996C210.621 100.996 227.006 117.381 227.006 137.593C227.006 157.805 210.621 174.189 190.409 174.189H153.812V137.593Z" fill="url(#paint8_linear_1848_25398)"/>
<path d="M153.812 171.593C153.812 151.381 170.197 134.996 190.409 134.996C210.621 134.996 227.006 151.381 227.006 171.593C227.006 191.805 210.621 208.189 190.409 208.189H153.812V171.593Z" fill="url(#paint9_linear_1848_25398)"/>
<defs>
<linearGradient id="paint0_linear_1848_25398" x1="161.768" y1="174.289" x2="33.9451" y2="46.9961" gradientUnits="userSpaceOnUse">
<stop stop-color="#507373"/>
<stop offset="1" stop-color="#3DCCC3" stop-opacity="0.66"/>
</linearGradient>
<linearGradient id="paint1_linear_1848_25398" x1="161.768" y1="128.289" x2="33.9451" y2="0.996095" gradientUnits="userSpaceOnUse">
<stop stop-color="#FF2255"/>
<stop offset="1" stop-color="#80112B" stop-opacity="0"/>
</linearGradient>
<linearGradient id="paint2_linear_1848_25398" x1="217.771" y1="88.9961" x2="188.65" y2="59.9961" gradientUnits="userSpaceOnUse">
<stop stop-color="#507373"/>
<stop offset="1" stop-color="#3DCCC3" stop-opacity="0.66"/>
</linearGradient>
<linearGradient id="paint3_linear_1848_25398" x1="77.0166" y1="174.162" x2="-13.5249" y2="83.9961" gradientUnits="userSpaceOnUse">
<stop stop-color="#507373"/>
<stop offset="1" stop-color="#3DCCC3" stop-opacity="0.66"/>
</linearGradient>
<linearGradient id="paint4_linear_1848_25398" x1="77.0166" y1="129.162" x2="-13.5249" y2="38.9961" gradientUnits="userSpaceOnUse">
<stop stop-color="#00CD67"/>
<stop offset="1" stop-color="#80112B" stop-opacity="0"/>
</linearGradient>
<linearGradient id="paint5_linear_1848_25398" x1="46.6458" y1="29.9961" x2="23.55" y2="6.99609" gradientUnits="userSpaceOnUse">
<stop stop-color="#00CD67"/>
<stop offset="1" stop-color="#80112B" stop-opacity="0"/>
</linearGradient>
<linearGradient id="paint6_linear_1848_25398" x1="33.3333" y1="184.996" x2="1.2" y2="152.996" gradientUnits="userSpaceOnUse">
<stop stop-color="#FF2255"/>
<stop offset="1" stop-color="#80112B" stop-opacity="0"/>
</linearGradient>
<linearGradient id="paint7_linear_1848_25398" x1="143.083" y1="181.996" x2="123" y2="201.996" gradientUnits="userSpaceOnUse">
<stop stop-color="#507373"/>
<stop offset="1" stop-color="#3DCCC3" stop-opacity="0.66"/>
</linearGradient>
<linearGradient id="paint8_linear_1848_25398" x1="216.332" y1="174.189" x2="142.833" y2="100.996" gradientUnits="userSpaceOnUse">
<stop stop-color="#507373"/>
<stop offset="1" stop-color="#3DCCC3" stop-opacity="0.66"/>
</linearGradient>
<linearGradient id="paint9_linear_1848_25398" x1="216.332" y1="208.189" x2="142.833" y2="134.996" gradientUnits="userSpaceOnUse">
<stop stop-color="#FF2255"/>
<stop offset="1" stop-color="#80112B" stop-opacity="0"/>
</linearGradient>
</defs>
</svg>
