<svg width="267" height="232" viewBox="0 0 267 232" fill="none" xmlns="http://www.w3.org/2000/svg">
<path d="M0 0.992188H110.009C133.166 0.992188 144.745 0.992188 153.526 5.64156C160.613 9.39357 166.408 15.1887 170.16 22.275C174.809 31.0561 174.809 42.6348 174.809 65.7922V140.177H64.8C41.6426 140.177 30.0639 140.177 21.2828 135.527C14.1965 131.775 8.40138 125.98 4.64937 118.894C0 110.113 0 98.5341 0 75.3767V0.992188Z" fill="url(#paint0_linear_1848_25504)"/>
<path d="M45.873 47.6914H155.882C179.04 47.6914 190.618 47.6914 199.399 52.3408C206.486 56.0928 212.281 61.8879 216.033 68.9742C220.682 77.7554 220.682 89.334 220.682 112.491V186.876H110.673C87.5157 186.876 75.937 186.876 67.1559 182.227C60.0695 178.475 54.2744 172.679 50.5224 165.593C45.873 156.812 45.873 145.233 45.873 122.076V47.6914Z" fill="url(#paint1_linear_1848_25504)"/>
<path d="M91.8164 92.8086H226.626C248.717 92.8086 266.626 110.717 266.626 132.809V231.993H131.816C109.725 231.993 91.8164 214.085 91.8164 191.993V92.8086Z" fill="url(#paint2_linear_1848_25504)"/>
<defs>
<linearGradient id="paint0_linear_1848_25504" x1="149.316" y1="140.177" x2="12.9771" y2="-30.348" gradientUnits="userSpaceOnUse">
<stop stop-color="#507373"/>
<stop offset="1" stop-color="#3DCCC3" stop-opacity="0.66"/>
</linearGradient>
<linearGradient id="paint1_linear_1848_25504" x1="195.189" y1="186.876" x2="58.8502" y2="16.3512" gradientUnits="userSpaceOnUse">
<stop stop-color="#00CD67"/>
<stop offset="1" stop-color="#80112B" stop-opacity="0"/>
</linearGradient>
<linearGradient id="paint2_linear_1848_25504" x1="241.133" y1="231.993" x2="104.794" y2="61.4684" gradientUnits="userSpaceOnUse">
<stop stop-color="#FF2255"/>
<stop offset="1" stop-color="#80112B" stop-opacity="0"/>
</linearGradient>
</defs>
</svg>
