<svg width="67" height="68" viewBox="0 0 67 68" fill="none" xmlns="http://www.w3.org/2000/svg">
<path fill-rule="evenodd" clip-rule="evenodd" d="M1.19636 20.3119C-0.32001 24.1345 0.550697 28.0308 2.29215 35.8238L3.54239 41.4185C5.2838 49.2113 6.15451 53.1076 8.75289 54.127C9.24231 54.3191 9.75718 54.3948 10.3147 54.3611C11.0718 54.3155 11.4504 54.2925 11.6856 53.9422C11.9206 53.5917 11.7581 53.1235 11.4331 52.1871C10.7206 50.1348 10.09 47.3131 9.26315 43.6129L9.26313 43.6128L8.01289 38.018C6.27144 30.2251 5.40073 26.3287 6.9171 22.5061C8.43348 18.6837 11.7447 16.4278 18.3669 11.916L18.3672 11.9159L23.1218 8.67672C26.2329 6.55719 28.6133 4.93553 30.5324 3.91738L30.5337 3.91671C31.4109 3.4511 31.8496 3.21826 31.9148 2.79881C31.9802 2.37916 31.7158 2.11065 31.1868 1.57355L31.1866 1.57335C30.8149 1.19576 30.4023 0.918138 29.9331 0.734054C27.3349 -0.285087 24.0241 1.97047 17.4023 6.48162L17.4023 6.48164L17.4011 6.48247L12.6464 9.72162L12.6462 9.72179C6.02396 14.2335 2.71274 16.4895 1.19636 20.3119ZM11.7865 39.8562C10.5598 31.9658 9.9465 28.0208 11.7319 24.3025C13.5172 20.5844 17.004 18.5451 23.9772 14.4665L23.9775 14.4664L28.9842 11.5382L28.9854 11.5375C35.9582 7.45951 39.4446 5.42054 41.9919 6.60452C42.4519 6.81837 42.8486 7.12196 43.1974 7.5227L43.1975 7.5229C43.6939 8.09296 43.942 8.37795 43.8478 8.79263C43.7538 9.20714 43.2963 9.4114 42.3814 9.81986L42.3801 9.82045C40.3789 10.7136 37.8723 12.1795 34.5963 14.0955L29.5896 17.0237L29.5893 17.0238C22.6161 21.1024 19.1293 23.1417 17.344 26.8598C15.5586 30.578 16.1719 34.5231 17.3986 42.4134L17.3986 42.4135L18.2792 48.0782L18.2792 48.0783C18.8617 51.8248 19.3058 54.6818 19.8845 56.776C20.1484 57.7315 20.2804 58.2093 20.0201 58.5441C19.7596 58.8787 19.3768 58.8773 18.6114 58.8742C18.0477 58.8722 17.5344 58.7635 17.0545 58.5404C14.507 57.3562 13.8937 53.4111 12.6671 45.5209L11.7865 39.8562ZM20.907 43.8636C20.3222 35.8999 20.0298 31.9182 22.0664 28.3596C24.103 24.8012 27.6731 23.0556 34.8131 19.5645L34.8134 19.5643L39.9398 17.0579L39.9411 17.0573C47.0806 13.5666 50.6503 11.8213 53.0501 13.2105C53.4834 13.4614 53.8479 13.7966 54.1578 14.2246L54.158 14.2248C54.599 14.8337 54.8196 15.1381 54.6951 15.5436C54.5708 15.9489 54.1073 16.1149 53.1804 16.4467L53.1791 16.4472C51.1516 17.1727 48.5851 18.4275 45.2307 20.0676L40.1043 22.574L40.1041 22.5741C32.964 26.0653 29.3939 27.8109 27.3574 31.3693C25.3208 34.9279 25.6132 38.9096 26.1979 46.8733L26.1979 46.8733L26.6177 52.5907L26.6177 52.5908L26.6177 52.5909L26.6177 52.5909C26.8954 56.3721 27.1071 59.2556 27.5099 61.3901C27.6936 62.364 27.7855 62.851 27.5047 63.1632C27.2238 63.4752 26.8494 63.4424 26.1008 63.3764C25.5495 63.328 25.0558 63.1775 24.6038 62.9157C22.2039 61.5263 21.9115 57.5445 21.3268 49.581L20.907 43.8636V43.8636ZM28.8857 53.1993V47.5021C28.8857 39.5668 28.8857 35.5991 31.2146 32.2204C33.5434 28.8419 37.2914 27.3717 44.7868 24.4316L44.7886 24.4309L50.1709 22.3198L50.1716 22.3196C57.668 19.3792 61.416 17.909 63.7449 19.4608C66.0739 21.0124 66.0739 24.9802 66.0739 32.9155V38.6127C66.0739 46.548 66.0739 50.5157 63.7449 53.8944C61.4161 57.273 57.6681 58.7432 50.1719 61.6835L50.1709 61.6839L44.7886 63.795C37.292 66.7355 33.5436 68.2058 31.2146 66.654C28.8857 65.1024 28.8857 61.1346 28.8857 53.1993ZM41.7069 52.2233L40.3028 52.7835C38.3084 53.5792 36.6915 52.4835 36.6915 50.3363C36.6915 48.1888 38.3084 45.8031 40.3028 45.0074C40.809 44.8054 41.2909 44.7254 41.7281 44.7534C41.9955 41.1026 44.7515 37.2167 48.112 35.876C51.1068 34.6812 53.6215 35.8907 54.3226 38.601C54.7363 38.2846 55.1796 38.0258 55.6409 37.8418C57.9037 36.9391 59.738 38.1822 59.738 40.6183C59.738 43.0546 57.9037 45.7614 55.6409 46.6642L54.517 47.1125V47.1127L41.7069 52.2233Z" fill="url(#paint0_linear_1828_19013)"/>
<defs>
<linearGradient id="paint0_linear_1828_19013" x1="5.40586" y1="-12.1089" x2="68.2075" y2="137.887" gradientUnits="userSpaceOnUse">
<stop stop-color="#FF2255"/>
<stop offset="1" stop-color="#650775"/>
</linearGradient>
</defs>
</svg>
