<svg width="58" height="65" viewBox="0 0 58 65" fill="none" xmlns="http://www.w3.org/2000/svg">
<path fill-rule="evenodd" clip-rule="evenodd" d="M2.31353 13.4701C0 16.87 0 20.8625 0 28.8476V34.5804C0 42.5653 0 46.5578 2.31353 48.1193C2.74928 48.4135 3.23523 48.5997 3.78669 48.6883C4.53552 48.809 4.91002 48.8692 5.21595 48.5785C5.52171 48.2878 5.46522 47.7953 5.35224 46.8106C5.1045 44.6523 5.1045 41.761 5.1045 37.9695V37.9694V32.2367C5.1045 24.2516 5.1045 20.2591 7.41803 16.8592C9.73153 13.4595 13.455 11.98 20.9018 9.02109L20.9021 9.02099L26.2487 6.89673C29.7472 5.50671 32.424 4.44322 34.5188 3.8681L34.5202 3.86772C35.4779 3.60464 35.9569 3.47308 36.112 3.07794C36.2673 2.68266 36.0678 2.36294 35.6687 1.72342L35.6685 1.72317C35.3881 1.27361 35.046 0.912673 34.6283 0.630704C32.3149 -0.930538 28.5918 0.548677 21.1456 3.50713L21.1442 3.50767L15.7976 5.63193L15.7973 5.63205C8.35053 8.59095 4.62703 10.0705 2.31353 13.4701ZM6.82353 33.9653C6.82353 25.9802 6.82353 21.9877 9.15889 18.5878C11.4942 15.1881 15.2528 13.7086 22.7698 10.7497L22.7701 10.7496L28.1672 8.62532L28.1686 8.62477C35.685 5.66632 39.4432 4.18711 41.7785 5.74835C42.2001 6.03032 42.5455 6.39125 42.8286 6.84081L42.8287 6.84105C43.2316 7.48058 43.433 7.8003 43.2762 8.19559C43.1196 8.59073 42.6362 8.72229 41.6694 8.98536L41.668 8.98574C39.5534 9.56087 36.8513 10.6244 33.3199 12.0144L27.9228 14.1386L27.9225 14.1387C20.4055 17.0977 16.6469 18.5772 14.3115 21.9768C11.9762 25.3767 11.9762 29.3692 11.9762 37.3543V43.0871V43.0871C11.9762 46.8786 11.9762 49.77 12.2263 51.9283C12.3403 52.913 12.3973 53.4054 12.0887 53.6962C11.7799 53.9868 11.4018 53.9266 10.6459 53.806C10.0893 53.7174 9.59875 53.5311 9.15889 53.237C6.82353 51.6755 6.82353 47.683 6.82353 39.698V33.9653ZM13.6471 39.4241C13.6471 31.439 13.6471 27.4465 15.9388 24.0466C18.2304 20.6469 21.9188 19.1674 29.2953 16.2085L29.2956 16.2084L34.5918 14.0841L34.5931 14.0836C41.9691 11.1251 45.6571 9.64593 47.9486 11.2072C48.3624 11.4891 48.7013 11.8501 48.9791 12.2996L48.9793 12.2999C49.3746 12.9394 49.5722 13.2591 49.4183 13.6544C49.2647 14.0496 48.7903 14.1811 47.8416 14.4442L47.8402 14.4446C45.7651 15.0197 43.1136 16.0832 39.6481 17.4732L34.3519 19.5975L34.3517 19.5976C26.9751 22.5565 23.2868 24.036 20.9951 27.4357C18.7034 30.8356 18.7034 34.828 18.7034 42.8131V42.8132V48.5459V48.546C18.7034 52.3375 18.7034 55.2288 18.9488 57.3871C19.0607 58.3718 19.1167 58.8642 18.8138 59.155C18.5108 59.4456 18.1398 59.3855 17.398 59.2648C16.8518 59.1762 16.3704 58.99 15.9388 58.6958C13.6471 57.1343 13.6471 53.1418 13.6471 45.1569V45.1569V39.4241V39.4241ZM20.8118 44.3624V44.3624C20.8118 36.4271 20.8118 32.4594 23.1407 29.0806C25.4695 25.7021 29.2175 24.232 36.7129 21.2919L36.7147 21.2911L42.097 19.1801L42.0976 19.1798C49.594 16.2394 53.3421 14.7692 55.671 16.321C58 17.8726 58 21.8405 58 29.7757V29.7758V35.4729V35.473C58 43.4082 58 47.3759 55.671 50.7547C53.3422 54.1333 49.5942 55.6034 42.098 58.5438L42.097 58.5442L36.7147 60.6552C29.2181 63.5958 25.4697 65.0661 23.1407 63.5143C20.8118 61.9627 20.8118 57.9948 20.8118 50.0595V44.3624ZM33.633 49.0836L32.2289 49.6437C30.2344 50.4394 28.6176 49.3438 28.6176 47.1965C28.6176 45.0491 30.2344 42.6634 32.2289 41.8677C32.7351 41.6657 33.217 41.5856 33.6542 41.6136C33.9215 37.9629 36.6776 34.0769 40.0381 32.7363C43.0329 31.5415 45.5476 32.751 46.2487 35.4612C46.6623 35.1449 47.1057 34.8861 47.5669 34.7021C49.8298 33.7993 51.6641 35.0425 51.6641 37.4786C51.6641 39.9148 49.8298 42.6217 47.5669 43.5244L46.4431 43.9727V43.9729L33.633 49.0836Z" fill="url(#paint0_linear_13404_13009)"/>
<defs>
<linearGradient id="paint0_linear_13404_13009" x1="4.40787" y1="-12.1016" x2="68.2446" y2="128.143" gradientUnits="userSpaceOnUse">
<stop stop-color="#FF2255"/>
<stop offset="1" stop-color="#650775"/>
</linearGradient>
</defs>
</svg>
